<svg width="150" height="85" viewBox="0 0 150 85" fill="none" xmlns="http://www.w3.org/2000/svg">
<path d="M24.95 53.15V44.5H10.8V54.6L13.7 54.75V59H1.6V54.95L3.25 54.8C4.21667 54.7 4.7 54.2333 4.7 53.4V30.15L1.85 30V25.75H13.95V29.8L12.3 29.95C11.7667 30.0167 11.3833 30.1667 11.15 30.4C10.9167 30.6 10.8 31 10.8 31.6V39.35H24.95V30.15L22.1 30V25.75H34.2V29.8L32.55 29.95C31.5833 30.05 31.1 30.5833 31.1 31.55V54.6L33.95 54.75V59H21.85V54.95L23.5 54.8C24 54.7333 24.3667 54.6 24.6 54.4C24.8333 54.1667 24.95 53.75 24.95 53.15Z" fill="black"/>
<path d="M47.9957 25.75L56.4957 48.35H56.5957L65.1457 25.75H75.0457V29.8L73.3957 29.95C72.3957 30.05 71.9124 30.6333 71.9457 31.7L73.1957 54.6L76.2957 54.75V59H64.2457V54.95L66.0457 54.8C66.9457 54.7333 67.379 54.3 67.3457 53.5L66.3957 35.85H66.2957L58.5957 55.8H53.8457L46.2457 36.05H46.1457L45.1457 54.6L48.3957 54.75V59H36.5957V54.95L38.3957 54.8C39.1624 54.7333 39.579 54.2833 39.6457 53.45L40.9957 30.2L37.9457 30V25.75H47.9957Z" fill="#00A79C"/>
<g clip-path="url(#clip0_2_7)">
<path d="M72.7068 11.3571C72.3738 12.3936 71.1698 13.0793 70.0178 12.8884C70.0049 12.8863 69.996 12.8786 69.9831 12.8762L63.1595 25.4797C62.7867 26.1656 61.9309 26.5725 61.1226 26.4386L43.8813 23.5828C43.0751 23.4492 42.5502 22.8157 42.6356 22.0782L44.1892 8.60535C44.1761 8.60319 44.1637 8.60607 44.1037 8.59614C42.9517 8.40532 42.2876 7.41022 42.6206 6.3737C42.9535 5.33718 44.2045 4.65928 45.3096 4.84232C46.4147 5.02537 47.1257 6.02823 46.7927 7.06476C46.6571 7.48697 46.3545 7.82687 45.9922 8.09698L49.5858 12.2356C50.2236 12.9703 51.5321 12.9308 52.2819 12.1543L57.0222 7.24641C56.539 6.81797 56.3027 6.18579 56.5188 5.51292C56.8518 4.4764 58.1022 3.79841 59.2548 3.98931C60.4073 4.18022 61.0239 5.16745 60.691 6.20397C60.4748 6.87684 59.8786 7.37113 59.181 7.60447L60.4485 13.5075C60.649 14.4412 61.8016 14.8881 62.8226 14.4286L68.5777 11.8384C68.4624 11.4892 68.4126 11.0461 68.5347 10.666C68.8678 9.62902 70.0711 8.94373 71.2236 9.13463C72.3762 9.32554 73.0399 10.3201 72.7068 11.3571Z" fill="#00A79C"/>
</g>
<defs>
<clipPath id="clip0_2_7">
<rect width="30.4485" height="25.2335" fill="white" transform="matrix(0.986558 0.16341 -0.305842 0.952082 44.7175 0)"/>
</clipPath>
</defs>
</svg>
